<?xml version="1.0" encoding="UTF-8"?>
<svg width="123px" height="10px" viewBox="0 0 123 10" version="1.1" xmlns="http://www.w3.org/2000/svg" xmlns:xlink="http://www.w3.org/1999/xlink">
    <!-- Generator: Sketch 47.1 (45422) - http://www.bohemiancoding.com/sketch -->
    <title>Page 1</title>
    <desc>Created with Sketch.</desc>
    <defs>
        <polygon id="path-1" points="0 10 122.453 10 122.453 0.859 0 0.859"></polygon>
    </defs>
    <g id="Page-1" stroke="none" stroke-width="1" fill="none" fill-rule="evenodd">
        <g transform="translate(0.000000, -0.386719)">
            <path d="M3.0834,1.26392 L0.0004,9.89992 L1.8874,9.89992 L2.4734,8.12492 L5.6534,8.12492 L6.2234,9.89992 L8.1814,9.89992 L5.1244,1.26392 L3.0834,1.26392 Z M4.0854,3.23892 L5.1754,6.63692 L2.9634,6.63692 L4.0854,3.23892 Z" id="Fill-1" fill="#FEFEFE"></path>
            <polygon id="Fill-2" fill="#FEFEFE" points="9.279 1.26392 9.279 9.89992 15.396 9.89992 15.396 8.34792 11.084 8.34792 11.084 1.26392"></polygon>
            <g id="Group-24" transform="translate(0.000000, 0.140620)">
                <path d="M18.3613,5.957 L18.3613,8.26 L20.4583,8.26 C20.8323,8.26 21.1243,8.209 21.3333,8.107 C21.7113,7.92 21.9003,7.561 21.9003,7.029 C21.9003,6.58 21.7163,6.271 21.3503,6.103 C21.1453,6.01 20.8583,5.961 20.4873,5.957 L18.3613,5.957 Z M18.3613,2.623 L18.3613,4.527 L20.4603,4.527 C20.8353,4.527 21.1393,4.456 21.3743,4.313 C21.6073,4.171 21.7243,3.918 21.7243,3.555 C21.7243,3.152 21.5693,2.887 21.2603,2.758 C20.9943,2.668 20.6533,2.623 20.2403,2.623 L18.3613,2.623 Z M23.0503,2.043 C23.3153,2.41 23.4473,2.85 23.4473,3.361 C23.4473,3.889 23.3143,4.312 23.0473,4.633 C22.8983,4.812 22.6783,4.977 22.3883,5.125 C22.8293,5.285 23.1623,5.539 23.3863,5.887 C23.6103,6.234 23.7223,6.656 23.7223,7.152 C23.7223,7.664 23.5943,8.123 23.3383,8.529 C23.1743,8.799 22.9713,9.025 22.7263,9.209 C22.4503,9.42 22.1253,9.564 21.7503,9.643 C21.3763,9.721 20.9693,9.76 20.5303,9.76 L16.6383,9.76 L16.6383,1.123 L20.8123,1.123 C21.8653,1.139 22.6113,1.445 23.0503,2.043 Z" id="Fill-3" fill="#FEFEFE"></path>
                <polygon id="Fill-5" fill="#FEFEFE" points="31.6621 2.6523 27.0921 2.6523 27.0921 4.4863 31.2871 4.4863 31.2871 5.9863 27.0921 5.9863 27.0921 8.2073 31.8731 8.2073 31.8731 9.7593 25.3281 9.7593 25.3281 1.1233 31.6621 1.1233"></polygon>
                <path d="M35.084,2.623 L35.084,4.943 L37.026,4.943 C37.412,4.943 37.701,4.896 37.895,4.803 C38.235,4.639 38.406,4.314 38.406,3.83 C38.406,3.307 38.241,2.955 37.911,2.775 C37.726,2.674 37.447,2.623 37.076,2.623 L35.084,2.623 Z M38.814,1.346 C39.132,1.482 39.401,1.684 39.623,1.949 C39.805,2.168 39.95,2.41 40.057,2.676 C40.164,2.941 40.217,3.244 40.217,3.584 C40.217,3.994 40.113,4.397 39.906,4.794 C39.699,5.19 39.357,5.471 38.881,5.635 C39.279,5.795 39.562,6.022 39.728,6.317 C39.894,6.612 39.977,7.062 39.977,7.668 L39.977,8.248 C39.977,8.643 39.992,8.91 40.024,9.051 C40.072,9.273 40.183,9.437 40.357,9.543 L40.357,9.76 L38.365,9.76 C38.311,9.568 38.272,9.414 38.248,9.297 C38.201,9.055 38.176,8.807 38.172,8.553 L38.16,7.75 C38.153,7.199 38.058,6.832 37.875,6.648 C37.692,6.465 37.349,6.373 36.847,6.373 L35.084,6.373 L35.084,9.76 L33.32,9.76 L33.32,1.123 L37.451,1.123 C38.042,1.135 38.496,1.209 38.814,1.346 L38.814,1.346 Z" id="Fill-7" fill="#FEFEFE"></path>
                <path d="M47.4678,7.6797 C47.8878,7.1527 48.0978,6.4027 48.0978,5.4297 C48.0978,4.4607 47.8878,3.7117 47.4678,3.1827 C47.0478,2.6537 46.4808,2.3887 45.7658,2.3887 C45.0508,2.3887 44.4808,2.6527 44.0548,3.1797 C43.6288,3.7067 43.4158,4.4567 43.4158,5.4297 C43.4158,6.4027 43.6288,7.1527 44.0548,7.6797 C44.4808,8.2067 45.0508,8.4707 45.7658,8.4707 C46.4808,8.4707 47.0478,8.2067 47.4678,7.6797 M48.5958,8.9917 C47.9438,9.6637 46.9998,9.9997 45.7658,9.9997 C44.5308,9.9997 43.5878,9.6637 42.9358,8.9917 C42.0608,8.1677 41.6228,6.9807 41.6228,5.4297 C41.6228,3.8477 42.0608,2.6597 42.9358,1.8677 C43.5878,1.1957 44.5308,0.8597 45.7658,0.8597 C46.9998,0.8597 47.9438,1.1957 48.5958,1.8677 C49.4668,2.6597 49.9028,3.8477 49.9028,5.4297 C49.9028,6.9807 49.4668,8.1677 48.5958,8.9917" id="Fill-9" fill="#FEFEFE"></path>
                <polygon id="Fill-11" fill="#FEFEFE" points="51.2793 1.123 53.0843 1.123 53.0843 8.207 57.3963 8.207 57.3963 9.76 51.2793 9.76"></polygon>
                <path d="M60.9604,6.4961 L63.1714,6.4961 L62.0814,3.0981 L60.9604,6.4961 Z M61.0794,1.1231 L63.1204,1.1231 L66.1774,9.7601 L64.2204,9.7601 L63.6494,7.9841 L60.4704,7.9841 L59.8844,9.7601 L57.9964,9.7601 L61.0794,1.1231 Z" id="Fill-13" fill="#FEFEFE"></path>
                <path d="M75.9761,3.8184 C75.8391,3.2284 75.5051,2.8164 74.9741,2.5824 C74.6771,2.4534 74.3471,2.3884 73.9841,2.3884 C73.2881,2.3884 72.7171,2.6514 72.2701,3.1754 C71.8231,3.6994 71.5991,4.4884 71.5991,5.5404 C71.5991,6.6014 71.8411,7.3514 72.3261,7.7934 C72.8101,8.2334 73.3611,8.4534 73.9781,8.4534 C74.5831,8.4534 75.0801,8.2794 75.4661,7.9324 C75.8531,7.5854 76.0911,7.1304 76.1811,6.5664 L74.1831,6.5664 L74.1831,5.1254 L77.7811,5.1254 L77.7811,9.7594 L76.5851,9.7594 L76.4041,8.6814 C76.0561,9.0894 75.7441,9.3784 75.4661,9.5454 C74.9901,9.8374 74.4041,9.9824 73.7081,9.9824 C72.5641,9.9824 71.6261,9.5864 70.8961,8.7944 C70.1341,7.9984 69.7531,6.9084 69.7531,5.5264 C69.7531,4.1294 70.1381,3.0084 70.9081,2.1654 C71.6771,1.3214 72.6951,0.9004 73.9601,0.9004 C75.0581,0.9004 75.9401,1.1784 76.6061,1.7354 C77.2721,2.2924 77.6541,2.9864 77.7511,3.8184 L75.9761,3.8184 Z" id="Fill-15" fill="#FEFEFE"></path>
                <mask id="mask-2" fill="white">
                    <use xlink:href="#path-1"></use>
                </mask>
                <g id="Clip-18"></g>
                <polygon id="Fill-17" fill="#FEFEFE" mask="url(#mask-2)" points="79.357 9.76 81.15 9.76 81.15 1.123 79.357 1.123"></polygon>
                <path d="M84.1382,7.0938 C84.1942,7.4888 84.3042,7.7828 84.4672,7.9788 C84.7662,8.3338 85.2792,8.5118 86.0042,8.5118 C86.4392,8.5118 86.7922,8.4648 87.0642,8.3708 C87.5782,8.1918 87.8352,7.8578 87.8352,7.3688 C87.8352,7.0838 87.7092,6.8638 87.4572,6.7068 C87.2052,6.5548 86.8052,6.4198 86.2582,6.3028 L85.3242,6.0978 C84.4042,5.8948 83.7732,5.6738 83.4292,5.4358 C82.8472,5.0368 82.5562,4.4138 82.5562,3.5668 C82.5562,2.7928 82.8402,2.1508 83.4102,1.6388 C83.9802,1.1268 84.8162,0.8708 85.9192,0.8708 C86.8402,0.8708 87.6262,1.1128 88.2772,1.5948 C88.9272,2.0768 89.2692,2.7778 89.3002,3.6958 L87.5662,3.6958 C87.5342,3.1758 87.3012,2.8068 86.8682,2.5878 C86.5802,2.4438 86.2222,2.3708 85.7932,2.3708 C85.3172,2.3708 84.9372,2.4648 84.6532,2.6528 C84.3682,2.8398 84.2262,3.1018 84.2262,3.4378 C84.2262,3.7458 84.3672,3.9768 84.6472,4.1288 C84.8262,4.2308 85.2092,4.3498 85.7942,4.4868 L87.3102,4.8438 C87.9742,4.9998 88.4722,5.2088 88.8032,5.4708 C89.3182,5.8768 89.5752,6.4648 89.5752,7.2348 C89.5752,8.0238 89.2712,8.6788 88.6602,9.1998 C88.0502,9.7218 87.1892,9.9828 86.0752,9.9828 C84.9382,9.9828 84.0442,9.7258 83.3932,9.2118 C82.7412,8.6978 82.4152,7.9918 82.4152,7.0938 L84.1382,7.0938 Z" id="Fill-19" fill="#FEFEFE" mask="url(#mask-2)"></path>
                <path d="M92.5933,5.957 L92.5933,8.26 L94.6903,8.26 C95.0653,8.26 95.3563,8.209 95.5653,8.107 C95.9433,7.92 96.1323,7.561 96.1323,7.029 C96.1323,6.58 95.9483,6.271 95.5823,6.103 C95.3773,6.01 95.0893,5.961 94.7193,5.957 L92.5933,5.957 Z M92.5933,2.623 L92.5933,4.527 L94.6933,4.527 C95.0683,4.527 95.3713,4.456 95.6063,4.313 C95.8393,4.171 95.9563,3.918 95.9563,3.555 C95.9563,3.152 95.8023,2.887 95.4923,2.758 C95.2263,2.668 94.8853,2.623 94.4723,2.623 L92.5933,2.623 Z M97.2823,2.043 C97.5473,2.41 97.6793,2.85 97.6793,3.361 C97.6793,3.889 97.5453,4.312 97.2793,4.633 C97.1303,4.812 96.9103,4.977 96.6203,5.125 C97.0613,5.285 97.3943,5.539 97.6173,5.887 C97.8423,6.234 97.9543,6.656 97.9543,7.152 C97.9543,7.664 97.8263,8.123 97.5703,8.529 C97.4063,8.799 97.2023,9.025 96.9583,9.209 C96.6833,9.42 96.3573,9.564 95.9833,9.643 C95.6083,9.721 95.2003,9.76 94.7623,9.76 L90.8703,9.76 L90.8703,1.123 L95.0443,1.123 C96.0973,1.139 96.8433,1.445 97.2823,2.043 L97.2823,2.043 Z" id="Fill-20" fill="#FEFEFE" mask="url(#mask-2)"></path>
                <polygon id="Fill-21" fill="#FEFEFE" mask="url(#mask-2)" points="105.894 2.6523 101.324 2.6523 101.324 4.4863 105.519 4.4863 105.519 5.9863 101.324 5.9863 101.324 8.2073 106.105 8.2073 106.105 9.7593 99.56 9.7593 99.56 1.1233 105.894 1.1233"></polygon>
                <path d="M109.3159,2.623 L109.3159,4.943 L111.2579,4.943 C111.6439,4.943 111.9329,4.896 112.1269,4.803 C112.4669,4.639 112.6379,4.314 112.6379,3.83 C112.6379,3.307 112.4729,2.955 112.1429,2.775 C111.9579,2.674 111.6789,2.623 111.3079,2.623 L109.3159,2.623 Z M113.0459,1.346 C113.3639,1.482 113.6329,1.684 113.8539,1.949 C114.0379,2.168 114.1819,2.41 114.2889,2.676 C114.3949,2.941 114.4489,3.244 114.4489,3.584 C114.4489,3.994 114.3449,4.397 114.1379,4.794 C113.9309,5.19 113.5889,5.471 113.1129,5.635 C113.5109,5.795 113.7939,6.022 113.9599,6.317 C114.1259,6.612 114.2089,7.062 114.2089,7.668 L114.2089,8.248 C114.2089,8.643 114.2239,8.91 114.2559,9.051 C114.3039,9.273 114.4149,9.437 114.5889,9.543 L114.5889,9.76 L112.5969,9.76 C112.5429,9.568 112.5039,9.414 112.4799,9.297 C112.4329,9.055 112.4079,8.807 112.4039,8.553 L112.3919,7.75 C112.3839,7.199 112.2899,6.832 112.1069,6.648 C111.9229,6.465 111.5809,6.373 111.0789,6.373 L109.3159,6.373 L109.3159,9.76 L107.5519,9.76 L107.5519,1.123 L111.6829,1.123 C112.2739,1.135 112.7279,1.209 113.0459,1.346 L113.0459,1.346 Z" id="Fill-22" fill="#FEFEFE" mask="url(#mask-2)"></path>
                <polygon id="Fill-23" fill="#FEFEFE" mask="url(#mask-2)" points="122.4526 1.123 122.4526 2.652 119.8686 2.652 119.8686 9.76 118.0526 9.76 118.0526 2.652 115.4566 2.652 115.4566 1.123"></polygon>
            </g>
        </g>
    </g>
</svg>