<?xml version="1.0" encoding="UTF-8"?>
<svg width="335px" height="548px" viewBox="0 0 335 548" version="1.1" xmlns="http://www.w3.org/2000/svg" xmlns:xlink="http://www.w3.org/1999/xlink">
    <!-- Generator: Sketch 47.1 (45422) - http://www.bohemiancoding.com/sketch -->
    <title>Page 1</title>
    <desc>Created with Sketch.</desc>
    <defs>
        <polygon id="path-1" points="3 0.4997 3 1 0.0002 1 0.0002 0.4997 3 0.4997"></polygon>
    </defs>
    <g id="Page-1" stroke="none" stroke-width="1" fill="none" fill-rule="evenodd">
        <g>
            <path d="M90.2998,270.1398 L89.4998,263.3398 C89.5998,260.9398 89.2998,258.5398 88.5998,256.1398 C86.8998,250.2398 79.3998,241.1398 71.4998,235.4398 C70.6998,234.8398 69.8998,234.3398 69.0998,233.9398 C65.7998,231.9398 64.1998,230.9398 64.6998,225.6398 C64.9998,222.4398 65.3998,211.4398 57.0998,206.3398 C56.4998,205.9398 55.8998,205.6398 55.1998,205.2398 C51.1998,202.9398 47.3998,200.7398 45.7998,193.4398 C45.5998,192.1398 43.7998,183.8398 37.1998,180.2398 C34.5998,178.8398 30.1998,177.6398 24.1998,180.2398 C23.0998,180.7398 22.0998,181.2398 21.0998,181.8398 C16.9998,184.0398 13.4998,185.9398 6.4998,182.9398 C6.0998,182.7398 2.9998,180.7398 0.8998,174.6398 C0.7998,175.5398 0.5998,176.3398 0.4998,177.2398 L0.4998,189.5398 C1.6998,190.4398 2.5998,190.9398 2.8998,191.0398 C13.8998,195.8398 20.7998,192.1398 25.2998,189.7398 C26.1998,189.2398 26.9998,188.8398 27.6998,188.5398 C30.9998,187.1398 32.4998,187.9398 32.9998,188.1398 C35.4998,189.5398 36.8998,193.7398 37.0998,195.1398 L37.0998,195.2398 C39.3998,206.5398 46.1998,210.4398 50.6998,213.0398 C51.2998,213.3398 51.7998,213.6398 52.2998,213.9398 C56.2998,216.4398 55.8998,223.4398 55.6998,224.8398 C54.5998,235.6398 60.6998,239.3398 64.2998,241.5398 C64.9998,241.9398 65.5998,242.3398 66.0998,242.6398 C72.5998,247.3398 78.4998,254.6398 79.7998,258.3398 L80.3998,263.7398 C80.1998,266.3398 79.0998,268.3398 78.2998,269.4398 C76.7998,271.5398 74.9998,272.5398 73.8998,272.6398 C60.8998,273.4398 56.8998,285.4398 56.3998,287.0398 C53.3998,296.1398 59.1998,303.2408 64.2998,305.3398 C66.4998,306.2408 69.1998,307.4398 69.7998,307.9398 C69.7998,307.9398 69.7998,308.0398 69.8998,308.1398 C70.6998,310.8398 65.4998,314.0398 64.1998,314.6398 C61.9998,315.6398 60.9998,318.3398 62.0998,320.5398 C62.7998,322.1398 64.3998,323.1398 66.0998,323.1398 C66.6998,323.1398 67.3998,323.0398 67.9998,322.7408 C73.0998,320.3398 80.9998,314.1398 78.4998,305.6398 C77.1998,301.2408 74.2998,300.0398 67.8998,297.3398 C66.8998,296.9398 63.3998,294.3398 64.8998,289.8398 C64.8998,289.7408 64.8998,289.6398 64.9998,289.6398 C65.0998,289.3398 67.2998,282.0398 74.5998,281.5398 C77.0998,281.3398 79.6998,280.2408 81.9998,278.5398 C86.2998,346.0398 33.1998,402.9398 32.5998,403.4398 L32.4998,403.5398 C23.7998,413.2408 13.0998,420.3398 0.4998,424.6398 L0.4998,433.9398 C15.7998,429.2408 28.6998,421.0398 39.0998,409.4398 C40.1998,408.2408 54.5998,392.8398 68.0998,368.3398 C80.9998,345.0398 95.0998,309.3398 90.2998,270.1398" id="Fill-1" fill="#020203"></path>
            <path d="M89.7998,20.7399 C87.6998,20.7399 84.8998,21.2399 83.2998,21.9399 C82.3998,22.3399 80.3998,23.4399 80.2998,24.6399 C80.1998,26.0399 81.9998,29.2399 85.5998,32.4399 C89.6998,28.9399 91.7998,23.8399 91.7998,23.7399 C92.3998,22.1399 92.2998,21.4399 92.2998,21.2399 C91.8998,20.9399 90.8998,20.7399 89.7998,20.7399 M80.0998,44.5399 C77.8998,44.5399 75.9998,42.9399 75.5998,40.7399 C75.2998,39.2399 75.8998,37.7399 76.8998,36.6399 C73.6998,33.2399 70.6998,28.6399 71.0998,23.7399 C71.3998,20.7399 72.9998,16.5399 79.2998,13.5399 C83.0998,11.7399 93.0998,9.4399 98.3998,14.3399 C100.1998,15.9399 102.7998,19.7399 100.2998,26.7399 C100.1998,26.9399 99.8998,27.8399 99.1998,29.1399 C108.5998,22.8399 110.3998,12.2399 110.4998,11.5399 C110.8998,9.0399 113.1998,7.3399 115.6998,7.7399 C118.1998,8.1399 119.8998,10.4399 119.4998,12.9399 C118.0998,22.5399 109.2998,41.0399 86.0998,42.6399 C84.4998,43.4399 82.6998,43.9399 80.7998,44.3399 C80.6998,44.5399 80.3998,44.5399 80.0998,44.5399" id="Fill-3" fill="#020203"></path>
            <path d="M250.7002,361.7003 C271.5002,332.0993 276.3002,321.5993 268.3002,308.8003 C265.3002,303.8993 261.0992,291.3003 257.0992,275.1003 C251.5002,252.4003 254.9002,247.6003 259.5992,241.0003 C263.3002,235.8003 262.5992,220.7003 262.0992,214.5003 C260.7002,194.9003 254.8002,184.9003 251.5992,180.9003 C256.7002,162.8003 248.7002,148.0003 239.3002,140.0003 C233.8002,135.3003 224.4002,119.5003 222.5002,111.7003 C220.9002,104.8003 210.0002,84.5003 208.8002,82.2003 C208.8002,82.1003 208.7002,82.0003 208.7002,82.0003 C188.3002,49.1003 157.6002,45.6003 148.7002,45.3003 C105.3002,43.8003 83.8002,35.8003 83.5002,35.7003 C82.5002,35.3003 81.4002,35.3003 80.4002,35.7003 C60.3002,43.2003 37.2002,37.1003 37.0002,37.0003 C36.8002,36.9003 36.5002,36.9003 36.3002,36.9003 C18.5002,34.9003 11.6002,21.3003 6.0002,10.4003 C4.7002,7.9003 3.5002,5.5003 2.3002,3.5003 C1.6002,2.2003 0.8002,1.1003 0.0002,0.0003 L0.0002,0.3003 L0.0002,0.5003 C0.4002,0.9003 0.7002,1.4003 0.7002,2.1003 L0.7002,19.3003 C6.6002,30.2003 15.7002,43.4003 35.0002,45.6003 C38.2002,46.4003 60.8002,51.8003 82.0002,44.6003 C87.8002,46.6003 109.6002,52.9003 148.4002,54.2003 C156.2002,54.5003 183.0002,57.6003 201.0992,86.6003 C205.5992,94.9003 212.9002,109.5003 213.9002,113.8003 C216.0992,123.3003 226.5992,140.9003 233.5002,146.8003 C236.0992,149.0003 249.0002,161.2003 242.4002,180.6003 C241.8002,182.3003 242.3002,184.2003 243.7002,185.3003 C243.8002,185.4003 251.7002,192.9003 253.3002,215.2003 C254.0002,224.3003 253.5992,234.0003 252.4002,235.9003 C245.9002,245.0003 242.4002,252.3003 248.5002,277.2003 C251.0002,287.3993 255.9002,305.5993 260.8002,313.3993 C265.3002,320.5993 265.0002,325.8993 243.4002,356.5993 C235.5002,367.8003 226.5002,386.3003 238.9002,418.0003 C238.9002,418.0993 239.0002,418.2003 239.0002,418.3003 C242.4002,425.3003 250.3002,446.0003 246.3002,456.8003 C245.3002,459.5003 243.7002,461.3003 241.3002,462.3993 C238.5992,463.3993 225.7002,469.8993 220.4002,502.8003 C219.5002,508.3003 218.5992,514.0003 194.0992,514.3993 L193.7002,514.3993 C190.5002,514.7003 162.0002,517.8003 154.9002,520.3993 C152.3002,521.3993 149.3002,519.5993 144.7002,516.5993 C138.5002,512.5993 130.1002,507.2003 119.9002,512.8993 C119.1002,512.8003 117.2002,512.2003 115.3002,510.5993 C114.2002,509.5993 112.2002,507.5993 112.0002,504.8993 C110.8002,489.7003 93.9002,486.8003 80.0002,487.0003 C73.2002,487.0993 61.5002,490.5993 55.0002,499.3993 C51.9002,497.2003 49.4002,494.3993 49.2002,490.7003 C49.1002,488.0993 49.0002,486.3003 56.8002,481.5993 C59.2002,480.2003 66.9002,475.0003 67.0002,466.3993 C67.1002,459.5003 62.4002,453.0003 53.0002,447.0003 L52.7002,446.8003 L52.4002,446.7003 C42.9002,442.5003 27.3002,433.0003 26.0002,425.2003 C25.8002,423.8993 25.8002,421.8993 28.6002,419.2003 L30.1002,417.7003 C30.9002,416.8003 31.9002,415.8003 32.8002,415.0993 C34.8002,413.7003 35.3002,410.8993 33.8002,408.8993 C32.4002,406.8993 29.6002,406.3993 27.6002,407.8993 C26.0002,409.0993 24.6002,410.5003 23.5002,411.7003 C23.1002,412.0993 22.8002,412.5003 22.4002,412.8003 C17.0002,417.8993 16.5002,423.2003 17.1002,426.7003 C19.6002,441.0993 44.1002,452.7003 48.3002,454.5993 C54.6002,458.7003 58.0002,462.8003 57.9002,466.2003 C57.8002,469.3993 54.8002,472.3003 52.0002,474.0003 C41.6002,480.2003 39.8002,484.8003 40.1002,491.0993 C40.5002,500.2003 47.7002,505.8993 54.3002,509.3003 C54.4002,509.3003 54.4002,509.3993 54.5002,509.3993 L54.6002,509.3993 C60.2002,512.2003 65.3002,513.3003 65.7002,513.3993 C66.0002,513.5003 66.3002,513.5003 66.6002,513.5003 C68.6002,513.5003 70.5002,512.0993 70.9002,510.0003 C71.4002,507.5993 69.9002,505.3003 67.5002,504.8003 C67.4002,504.8003 65.5002,504.3003 62.9002,503.3993 C67.5002,498.3993 75.1002,495.8993 79.8002,495.8003 C94.6002,495.5993 102.3002,498.8003 102.9002,505.5993 C103.4002,512.5003 108.5002,517.5003 113.1002,519.8993 C117.1002,522.0003 121.0002,522.3003 123.6002,520.8003 C129.0002,517.5993 133.2002,520.0003 139.6002,524.0993 C143.6002,526.6993 148.1002,529.5003 153.1002,529.5003 C154.6002,529.5003 156.1002,529.2003 157.7002,528.7003 C162.3002,527.0003 182.4002,524.3993 194.2002,523.2003 C214.3002,522.8003 226.5002,519.5993 228.9002,504.0993 C233.3002,476.3003 243.2002,471.0003 244.0992,470.5993 C244.3002,470.5993 244.3002,470.5003 244.5002,470.3993 C249.2002,468.3003 252.5002,464.7003 254.4002,459.7003 C260.3002,443.5993 248.0002,417.0003 246.8002,414.5003 C241.5992,400.3003 236.9002,381.3003 250.7002,361.7003" id="Fill-5" fill="#020203"></path>
            <path d="M0.7002,537.84 C17.1002,532.84 37.5002,523.44 55.0002,505.94 L48.7002,499.74 C33.5002,514.94 15.5002,523.64 0.6002,528.54 L0.6002,537.84 L0.7002,537.84 Z" id="Fill-7" fill="#020203"></path>
            <path d="M226.5996,463.2404 L216.9996,454.4394 L216.4006,441.4394 L225.9996,450.2404 L226.5996,463.2404 Z M226.9996,472.3404 L227.5996,485.3404 L217.9996,476.5404 L217.4006,463.5404 L226.9996,472.3404 Z M215.4996,419.2404 L225.0996,428.0404 L225.7006,441.0404 L216.0996,432.2404 L215.4996,419.2404 Z M214.4996,397.1394 L224.0996,405.9394 L224.7006,418.9394 L215.0996,410.1394 L214.4996,397.1394 Z M213.5996,375.0404 L223.2006,383.8404 L223.7996,396.8404 L214.2006,388.0404 L213.5996,375.0404 Z M212.7006,352.9394 L222.2996,361.7404 L222.9006,374.7404 L213.2996,365.9394 L212.7006,352.9394 Z M203.4996,505.7404 L202.9006,492.7404 L212.4996,501.5404 L213.0996,514.5404 L203.4996,505.7404 Z M201.9996,470.6394 L211.5996,479.4394 L212.2006,492.4394 L202.5996,483.6394 L201.9996,470.6394 Z M201.0996,448.5404 L210.7006,457.3404 L211.2996,470.3404 L201.7006,461.5404 L201.0996,448.5404 Z M200.0996,426.4394 L209.7006,435.2404 L210.2996,448.2404 L200.7006,439.4394 L200.0996,426.4394 Z M199.2006,404.3404 L208.7996,413.1394 L209.4006,426.1394 L199.7996,417.3404 L199.2006,404.3404 Z M198.7996,395.2404 L198.2006,382.2404 L207.7996,391.0404 L208.4006,404.0404 L198.7996,395.2404 Z M197.2996,360.1394 L206.9006,368.9394 L207.4996,381.9394 L197.9006,373.1394 L197.2996,360.1394 Z M196.9006,351.0404 L196.2996,338.0404 L205.9006,346.8404 L206.4996,359.8404 L196.9006,351.0404 Z M187.2006,490.7404 L186.5996,477.7404 L196.2006,486.5404 L196.7996,499.5404 L187.2006,490.7404 Z M185.7006,455.6394 L195.2996,464.4394 L195.9006,477.4394 L186.2996,468.6394 L185.7006,455.6394 Z M184.7996,433.5404 L194.4006,442.3404 L194.9996,455.3404 L185.4006,446.5404 L184.7996,433.5404 Z M183.7996,411.4394 L193.4006,420.2404 L193.9996,433.2404 L184.4006,424.4394 L183.7996,411.4394 Z M182.9006,389.3404 L192.4996,398.1394 L193.0996,411.1394 L183.4996,402.3404 L182.9006,389.3404 Z M181.9006,367.2404 L191.4996,376.0404 L192.0996,389.0404 L182.4996,380.2404 L181.9006,367.2404 Z M181.5996,358.1394 L180.9996,345.1394 L190.5996,353.9394 L191.2006,366.9394 L181.5996,358.1394 Z M171.7996,497.9394 L171.2006,484.9394 L180.7996,493.7404 L181.4006,506.7404 L171.7996,497.9394 Z M170.4006,462.8404 L179.9996,471.6394 L180.5996,484.6394 L170.9996,475.8404 L170.4006,462.8404 Z M169.4006,440.7404 L178.9996,449.5404 L179.5996,462.5404 L169.9996,453.7404 L169.4006,440.7404 Z M168.4996,418.5404 L178.0996,427.3404 L178.7006,440.3404 L169.0996,431.5404 L168.4996,418.5404 Z M167.4996,396.4394 L177.0996,405.2404 L177.7006,418.2404 L168.0996,409.4394 L167.4996,396.4394 Z M166.5996,374.3404 L176.2006,383.1394 L176.7996,396.1394 L167.2006,387.3404 L166.5996,374.3404 Z M166.2006,365.3404 L165.5996,352.3404 L175.2006,361.1394 L175.7996,374.1394 L166.2006,365.3404 Z M156.4996,505.0404 L155.8996,492.0404 L165.4996,500.8404 L166.0996,513.8404 L156.4996,505.0404 Z M154.9996,469.9394 L164.5996,478.7404 L165.2006,491.7404 L155.5996,482.9394 L154.9996,469.9394 Z M154.0996,447.8404 L163.7006,456.6394 L164.2996,469.6394 L154.7006,460.8404 L154.0996,447.8404 Z M153.0996,425.7404 L162.7006,434.5404 L163.2996,447.5404 L153.7006,438.7404 L153.0996,425.7404 Z M152.2006,403.6394 L161.7996,412.4394 L162.3996,425.4394 L152.7996,416.6394 L152.2006,403.6394 Z M151.2006,381.5404 L160.7996,390.3404 L161.3996,403.3404 L151.7996,394.5404 L151.2006,381.5404 Z M150.7996,372.4394 L150.2006,359.4394 L159.7996,368.2404 L160.3996,381.2404 L150.7996,372.4394 Z M141.0996,512.2404 L140.4996,499.2404 L150.0996,508.0404 L150.7006,521.0404 L141.0996,512.2404 Z M139.5996,477.0404 L149.2006,485.8404 L149.7996,498.8404 L140.2006,490.0404 L139.5996,477.0404 Z M138.7006,454.9394 L148.2996,463.7404 L148.8996,476.7404 L139.2996,467.9394 L138.7006,454.9394 Z M137.7996,432.8404 L147.3996,441.6394 L147.9996,454.6394 L138.3996,445.8404 L137.7996,432.8404 Z M136.7996,410.7404 L146.3996,419.5404 L146.9996,432.5404 L137.3996,423.7404 L136.7996,410.7404 Z M135.8996,388.6394 L145.4996,397.4394 L146.0996,410.4394 L136.4996,401.6394 L135.8996,388.6394 Z M134.8996,366.5404 L144.4996,375.3404 L145.0996,388.3404 L135.4996,379.5404 L134.8996,366.5404 Z M134.5996,357.4394 L133.9996,344.4394 L143.5996,353.2404 L144.2006,366.2404 L134.5996,357.4394 Z M124.7996,497.2404 L124.2006,484.2404 L133.7996,493.0404 L134.3996,506.0404 L124.7996,497.2404 Z M123.3996,462.1394 L132.9996,470.9394 L133.5996,483.9394 L123.9996,475.1394 L123.3996,462.1394 Z M122.3996,440.0404 L131.9996,448.8404 L132.5996,461.8404 L122.9996,453.0404 L122.3996,440.0404 Z M121.4996,417.9394 L131.0996,426.7404 L131.7006,439.7404 L122.0996,430.9394 L121.4996,417.9394 Z M120.4996,395.8404 L130.0996,404.6394 L130.7006,417.6394 L121.0996,408.8404 L120.4996,395.8404 Z M119.5996,373.7404 L129.2006,382.5404 L129.7996,395.5404 L120.2006,386.7404 L119.5996,373.7404 Z M119.2006,364.6394 L118.5996,351.6394 L128.2006,360.4394 L128.7996,373.4394 L119.2006,364.6394 Z M109.4996,504.3404 L108.8996,491.3404 L118.4996,500.1394 L119.0996,513.1394 L109.4996,504.3404 Z M107.9996,469.2404 L117.5996,478.0404 L118.2006,491.0404 L108.5996,482.2404 L107.9996,469.2404 Z M107.5996,460.1394 L106.9996,447.1394 L116.5996,455.9394 L117.2006,468.9394 L107.5996,460.1394 Z M106.0996,425.0404 L115.7006,433.8404 L116.2996,446.8404 L106.7006,438.0404 L106.0996,425.0404 Z M105.7006,415.9394 L105.0996,402.9394 L114.7006,411.7404 L115.2996,424.7404 L105.7006,415.9394 Z M104.7996,393.8404 L104.2006,380.8404 L113.7996,389.6394 L114.3996,402.6394 L104.7996,393.8404 Z M103.7996,371.7404 L103.2006,358.7404 L112.7996,367.5404 L113.3996,380.5404 L103.7996,371.7404 Z M102.2996,336.6394 L111.8996,345.4394 L112.4996,358.4394 L102.8996,349.6394 L102.2996,336.6394 Z M93.2006,489.4394 L92.5996,476.4394 L102.2006,485.2404 L102.7996,498.2404 L93.2006,489.4394 Z M91.7006,454.2404 L101.2996,463.0404 L101.8996,476.0404 L92.2996,467.2404 L91.7006,454.2404 Z M90.7996,432.1394 L100.3996,440.9394 L100.9996,453.9394 L91.3996,445.1394 L90.7996,432.1394 Z M90.3996,423.1394 L89.7996,410.1394 L99.3996,418.9394 L99.9996,431.9394 L90.3996,423.1394 Z M88.8996,387.9394 L98.4996,396.7404 L99.0996,409.7404 L89.4996,400.9394 L88.8996,387.9394 Z M87.8996,365.8404 L97.4996,374.6394 L98.0996,387.6394 L88.4996,378.8404 L87.8996,365.8404 Z M86.9996,343.7404 L96.5996,352.5404 L97.2006,365.5404 L87.5996,356.7404 L86.9996,343.7404 Z M86.5996,334.6394 L85.9996,321.6394 L95.5996,330.4394 L96.2006,343.4394 L86.5996,334.6394 Z M76.8996,474.4394 L76.2996,461.4394 L85.8996,470.2404 L86.4996,483.2404 L76.8996,474.4394 Z M75.3996,439.3404 L84.9996,448.1394 L85.5996,461.1394 L75.9996,452.3404 L75.3996,439.3404 Z M74.9996,430.2404 L74.3996,417.2404 L83.9996,426.0404 L84.5996,439.0404 L74.9996,430.2404 Z M74.0996,408.1394 L73.4996,395.1394 L83.0996,403.9394 L83.7006,416.9394 L74.0996,408.1394 Z M72.5996,373.0404 L82.2006,381.8404 L82.7996,394.8404 L73.2006,386.0404 L72.5996,373.0404 Z M72.2006,363.9394 L71.5996,350.9394 L81.2006,359.7404 L81.7996,372.7404 L72.2006,363.9394 Z M94.7996,159.7404 L104.3996,168.5404 L104.9996,181.5404 L95.3996,172.7404 L94.7996,159.7404 Z M94.3996,150.7404 L93.7996,137.7404 L103.3996,146.5404 L103.9996,159.5404 L94.3996,150.7404 Z M93.4996,128.6394 L92.8996,115.6394 L102.4996,124.4404 L103.0996,137.4404 L93.4996,128.6394 Z M92.5996,106.4404 L91.9996,93.4404 L101.5996,102.2404 L102.2006,115.2404 L92.5996,106.4404 Z M82.7996,246.2404 L82.2006,233.2404 L91.7996,242.0404 L92.3996,255.0404 L82.7996,246.2404 Z M81.2996,211.1394 L90.8996,219.9404 L91.4996,232.9404 L81.8996,224.1394 L81.2996,211.1394 Z M80.3996,189.0404 L89.9996,197.8404 L90.5996,210.8404 L80.9996,202.0404 L80.3996,189.0404 Z M79.4996,166.9404 L89.0996,175.7404 L89.7006,188.7404 L80.0996,179.9404 L79.4996,166.9404 Z M79.0996,157.8404 L78.4996,144.8404 L88.0996,153.6394 L88.7006,166.6394 L79.0996,157.8404 Z M77.5996,122.7404 L87.2006,131.5404 L87.7996,144.5404 L78.2006,135.7404 L77.5996,122.7404 Z M76.5996,100.6394 L86.2006,109.4404 L86.7996,122.4404 L77.2006,113.6394 L76.5996,100.6394 Z M75.7006,78.5404 L85.2996,87.3404 L85.8996,100.3404 L76.2996,91.5404 L75.7006,78.5404 Z M66.4996,231.3404 L65.8996,218.3404 L75.4996,227.1394 L76.0996,240.1394 L66.4996,231.3404 Z M64.9996,196.1394 L74.5996,204.9404 L75.2006,217.9404 L65.5996,209.1394 L64.9996,196.1394 Z M64.0996,174.0404 L73.7006,182.8404 L74.2996,195.8404 L64.7006,187.0404 L64.0996,174.0404 Z M63.2006,151.9404 L72.7996,160.7404 L73.3996,173.7404 L63.7996,164.9404 L63.2006,151.9404 Z M62.2006,129.8404 L71.7996,138.6394 L72.3996,151.6394 L62.7996,142.8404 L62.2006,129.8404 Z M61.7996,120.7404 L61.2006,107.7404 L70.7996,116.5404 L71.3996,129.5404 L61.7996,120.7404 Z M60.2996,85.6394 L69.8996,94.4404 L70.4996,107.4404 L60.8996,98.6394 L60.2996,85.6394 Z M59.3996,63.5404 L68.9996,72.3404 L69.5996,85.3404 L59.9996,76.5404 L59.3996,63.5404 Z M84.3996,65.2404 L84.9996,78.2404 L75.3996,69.4404 L74.7996,56.4404 L84.3996,65.2404 Z M99.7006,58.0404 L100.2996,71.0404 L90.7006,62.2404 L90.0996,49.2404 L99.7006,58.0404 Z M101.2006,93.2404 L91.5996,84.4404 L90.9996,71.4404 L100.5996,80.2404 L101.2006,93.2404 Z M105.8996,203.7404 L96.2996,194.9404 L95.7006,181.9404 L105.2996,190.7404 L105.8996,203.7404 Z M106.2996,212.8404 L106.8996,225.8404 L97.2996,217.0404 L96.7006,204.0404 L106.2996,212.8404 Z M115.9996,73.0404 L116.5996,86.0404 L106.9996,77.2404 L106.3996,64.2404 L115.9996,73.0404 Z M117.4996,108.1394 L107.8996,99.3404 L107.2996,86.3404 L116.8996,95.1394 L117.4996,108.1394 Z M118.4996,130.2404 L108.8996,121.4404 L108.2996,108.4404 L117.8996,117.2404 L118.4996,130.2404 Z M119.3996,152.3404 L109.7996,143.5404 L109.2006,130.5404 L118.7996,139.3404 L119.3996,152.3404 Z M120.2996,174.4404 L110.7006,165.6394 L110.0996,152.6394 L119.7006,161.4404 L120.2996,174.4404 Z M110.9996,323.3404 L111.5996,336.3404 L101.9996,327.5404 L101.3996,314.5404 L110.9996,323.3404 Z M110.0996,301.2404 L110.7006,314.2404 L101.0996,305.4394 L100.4996,292.4394 L110.0996,301.2404 Z M109.0996,279.1394 L109.7006,292.1394 L100.0996,283.3404 L99.4996,270.3404 L109.0996,279.1394 Z M98.2006,239.1394 L97.5996,226.1394 L107.2006,234.9404 L107.7996,247.9404 L98.2006,239.1394 Z M108.2006,257.0404 L108.7996,270.0404 L99.2006,261.2404 L98.5996,248.2404 L108.2006,257.0404 Z M121.2996,196.6394 L111.7006,187.8404 L111.0996,174.8404 L120.7006,183.6394 L121.2996,196.6394 Z M121.7006,205.6394 L122.2996,218.6394 L112.7006,209.8404 L112.0996,196.8404 L121.7006,205.6394 Z M131.3996,65.9404 L131.9996,78.9404 L122.3996,70.1394 L121.7996,57.1394 L131.3996,65.9404 Z M132.8996,101.0404 L123.2996,92.2404 L122.7006,79.2404 L132.2996,88.0404 L132.8996,101.0404 Z M133.7996,123.1394 L124.2006,114.3404 L123.5996,101.3404 L133.2006,110.1394 L133.7996,123.1394 Z M134.7006,145.2404 L125.0996,136.4404 L124.4996,123.4404 L134.0996,132.2404 L134.7006,145.2404 Z M135.7006,167.3404 L126.0996,158.5404 L125.4996,145.5404 L135.0996,154.3404 L135.7006,167.3404 Z M136.5996,189.4404 L126.9996,180.6394 L126.3996,167.6394 L135.9996,176.4404 L136.5996,189.4404 Z M127.2996,338.3404 L127.8996,351.3404 L118.2996,342.5404 L117.7006,329.5404 L127.2996,338.3404 Z M126.3996,316.2404 L126.9996,329.2404 L117.3996,320.4394 L116.7996,307.4394 L126.3996,316.2404 Z M125.3996,294.1394 L125.9996,307.1394 L116.3996,298.3404 L115.7996,285.3404 L125.3996,294.1394 Z M124.4996,271.9404 L125.0996,284.9394 L115.4996,276.1394 L114.8996,263.1394 L124.4996,271.9404 Z M113.5996,231.9404 L112.9996,218.9404 L122.5996,227.7404 L123.2006,240.7404 L113.5996,231.9404 Z M123.4996,249.8404 L124.0996,262.8404 L114.4996,254.0404 L113.8996,241.0404 L123.4996,249.8404 Z M137.5996,211.5404 L127.9996,202.7404 L127.3996,189.7404 L136.9996,198.5404 L137.5996,211.5404 Z M146.7006,58.7404 L147.2996,71.7404 L137.7006,62.9404 L137.0996,49.9404 L146.7006,58.7404 Z M148.2006,93.9404 L138.5996,85.1394 L137.9996,72.1394 L147.5996,80.9404 L148.2006,93.9404 Z M149.2006,116.0404 L139.5996,107.2404 L138.9996,94.2404 L148.5996,103.0404 L149.2006,116.0404 Z M150.0996,138.1394 L140.4996,129.3404 L139.8996,116.3404 L149.4996,125.1394 L150.0996,138.1394 Z M150.9996,160.2404 L141.3996,151.4404 L140.7996,138.4404 L150.3996,147.2404 L150.9996,160.2404 Z M151.9996,182.3404 L142.3996,173.5404 L141.7996,160.5404 L151.3996,169.3404 L151.9996,182.3404 Z M142.7006,331.1394 L143.2996,344.1394 L133.7006,335.3404 L133.0996,322.3404 L142.7006,331.1394 Z M141.7006,309.0404 L142.2996,322.0404 L132.7006,313.2404 L132.0996,300.2404 L141.7006,309.0404 Z M140.7996,286.9394 L141.3996,299.9394 L131.7996,291.1394 L131.2006,278.1394 L140.7996,286.9394 Z M139.7996,264.8404 L140.3996,277.8404 L130.7996,269.0404 L130.2006,256.0404 L139.7996,264.8404 Z M128.8996,224.8404 L128.2996,211.8404 L137.8996,220.6394 L138.4996,233.6394 L128.8996,224.8404 Z M138.8996,242.7404 L139.4996,255.7404 L129.8996,246.9404 L129.2996,233.9404 L138.8996,242.7404 Z M152.8996,204.4404 L143.2996,195.6394 L142.7006,182.6394 L152.2996,191.4404 L152.8996,204.4404 Z M153.2996,213.5404 L153.8996,226.5404 L144.2996,217.7404 L143.7006,204.7404 L153.2996,213.5404 Z M162.9996,73.7404 L163.5996,86.7404 L153.9996,77.9404 L153.3996,64.9404 L162.9996,73.7404 Z M164.4996,108.8404 L154.8996,100.0404 L154.2996,87.0404 L163.8996,95.8404 L164.4996,108.8404 Z M165.4996,130.9404 L155.8996,122.1394 L155.2996,109.1394 L164.8996,117.9404 L165.4996,130.9404 Z M165.7996,140.0404 L166.3996,153.0404 L156.7996,144.2404 L156.2006,131.2404 L165.7996,140.0404 Z M167.2996,175.1394 L157.7006,166.3404 L157.0996,153.3404 L166.7006,162.1394 L167.2996,175.1394 Z M168.2996,197.2404 L158.7006,188.4404 L158.0996,175.4404 L167.7006,184.2404 L168.2996,197.2404 Z M158.9996,346.1394 L159.5996,359.1394 L149.9996,350.3404 L149.3996,337.3404 L158.9996,346.1394 Z M157.9996,324.0404 L158.5996,337.0404 L148.9996,328.2404 L148.3996,315.2404 L157.9996,324.0404 Z M157.0996,301.9394 L157.7006,314.9394 L148.0996,306.1394 L147.4996,293.1394 L157.0996,301.9394 Z M156.0996,279.8404 L156.7006,292.8404 L147.0996,284.0404 L146.4996,271.0404 L156.0996,279.8404 Z M145.2006,239.8404 L144.5996,226.8404 L154.2006,235.6394 L154.7996,248.6394 L145.2006,239.8404 Z M155.2006,257.7404 L155.7996,270.7404 L146.2006,261.9404 L145.5996,248.9404 L155.2006,257.7404 Z M168.7006,206.3404 L169.2996,219.3404 L159.7006,210.5404 L159.0996,197.5404 L168.7006,206.3404 Z M169.5996,228.4404 L170.2006,241.4404 L160.5996,232.6394 L159.9996,219.6394 L169.5996,228.4404 Z M179.2996,88.7404 L179.9006,101.7404 L170.2996,92.9404 L169.7006,79.9404 L179.2996,88.7404 Z M180.7996,123.8404 L171.2006,115.0404 L170.5996,102.0404 L180.2006,110.8404 L180.7996,123.8404 Z M181.7996,145.9404 L172.2006,137.1394 L171.5996,124.1394 L181.2006,132.9404 L181.7996,145.9404 Z M182.7006,168.0404 L173.0996,159.2404 L172.4996,146.2404 L182.0996,155.0404 L182.7006,168.0404 Z M183.5996,190.1394 L173.9996,181.3404 L173.4006,168.3404 L182.9996,177.1394 L183.5996,190.1394 Z M174.2996,339.0404 L174.9006,352.0404 L165.2996,343.2404 L164.7006,330.2404 L174.2996,339.0404 Z M173.4006,316.8404 L173.9996,329.8404 L164.3996,321.0404 L163.7996,308.0404 L173.4006,316.8404 Z M172.4006,294.7404 L172.9996,307.7404 L163.3996,298.9394 L162.7996,285.9394 L172.4006,294.7404 Z M161.4996,254.7404 L160.8996,241.7404 L170.4996,250.5404 L171.0996,263.5404 L161.4996,254.7404 Z M171.4996,272.6394 L172.0996,285.6394 L162.4996,276.8404 L161.8996,263.8404 L171.4996,272.6394 Z M184.5996,212.2404 L174.9996,203.4404 L174.4006,190.4404 L183.9996,199.2404 L184.5996,212.2404 Z M184.9996,221.3404 L185.5996,234.3404 L175.9996,225.5404 L175.4006,212.5404 L184.9996,221.3404 Z M185.9006,243.4404 L186.4996,256.4404 L176.9006,247.6394 L176.2996,234.6394 L185.9006,243.4404 Z M195.5996,103.6394 L196.2006,116.6394 L186.5996,107.8404 L185.9996,94.8404 L195.5996,103.6394 Z M197.0996,138.8404 L187.4996,130.0404 L186.9006,117.0404 L196.4996,125.8404 L197.0996,138.8404 Z M197.9996,160.9404 L188.4006,152.1394 L187.7996,139.1394 L197.4006,147.9404 L197.9996,160.9404 Z M198.9996,183.0404 L189.4006,174.2404 L188.7996,161.2404 L198.4006,170.0404 L198.9996,183.0404 Z M189.7006,331.8404 L190.2996,344.8404 L180.7006,336.0404 L180.0996,323.0404 L189.7006,331.8404 Z M188.7006,309.7404 L189.2996,322.7404 L179.7006,313.9394 L179.0996,300.9394 L188.7006,309.7404 Z M177.7996,269.7404 L177.2006,256.7404 L186.7996,265.5404 L187.4006,278.5404 L177.7996,269.7404 Z M187.7996,287.6394 L188.4006,300.6394 L178.7996,291.8404 L178.2006,278.8404 L187.7996,287.6394 Z M199.9006,205.1394 L190.2996,196.3404 L189.7006,183.3404 L199.2996,192.1394 L199.9006,205.1394 Z M200.9006,227.2404 L191.2996,218.4404 L190.7006,205.4404 L200.2996,214.2404 L200.9006,227.2404 Z M201.2996,236.3404 L201.9006,249.3404 L192.2996,240.5404 L191.7006,227.5404 L201.2996,236.3404 Z M202.2006,258.4404 L202.7996,271.4404 L193.2006,262.6394 L192.5996,249.6394 L202.2006,258.4404 Z M211.9006,118.6394 L212.4996,131.6394 L202.9006,122.8404 L202.2996,109.8404 L211.9006,118.6394 Z M213.4006,153.7404 L203.7996,144.9404 L203.2006,131.9404 L212.7996,140.7404 L213.4006,153.7404 Z M214.2996,175.8404 L204.7006,167.0404 L204.0996,154.0404 L213.7006,162.8404 L214.2996,175.8404 Z M204.9996,324.7404 L205.5996,337.7404 L195.9996,328.9394 L195.4006,315.9394 L204.9996,324.7404 Z M194.0996,284.7404 L193.4996,271.7404 L203.0996,280.5404 L203.7006,293.5404 L194.0996,284.7404 Z M204.0996,302.6394 L204.7006,315.6394 L195.0996,306.8404 L194.4996,293.8404 L204.0996,302.6394 Z M215.2996,197.9404 L205.7006,189.1394 L205.0996,176.1394 L214.7006,184.9404 L215.2996,197.9404 Z M216.2006,220.0404 L206.5996,211.2404 L205.9996,198.2404 L215.5996,207.0404 L216.2006,220.0404 Z M217.2006,242.1394 L207.5996,233.3404 L206.9996,220.3404 L216.5996,229.1394 L217.2006,242.1394 Z M218.0996,264.2404 L208.4996,255.4404 L207.9006,242.4404 L217.4996,251.2404 L218.0996,264.2404 Z M218.4996,273.3404 L219.0996,286.3404 L209.4996,277.5404 L208.9006,264.5404 L218.4996,273.3404 Z M219.4006,295.4394 L219.9996,308.4394 L210.4006,299.6394 L209.7996,286.6394 L219.4006,295.4394 Z M220.4006,317.5404 L220.9996,330.5404 L211.4006,321.7404 L210.7996,308.7404 L220.4006,317.5404 Z M221.2996,339.6394 L221.9006,352.6394 L212.2996,343.8404 L211.7006,330.8404 L221.2996,339.6394 Z M61.4996,481.6394 L60.8996,468.6394 L70.4996,477.4394 L71.0996,490.4394 L61.4996,481.6394 Z M60.5996,459.4394 L59.9996,446.4394 L69.5996,455.2404 L70.2006,468.2404 L60.5996,459.4394 Z M59.0996,424.3404 L68.7006,433.1394 L69.2996,446.1394 L59.7006,437.3404 L59.0996,424.3404 Z M58.2006,402.2404 L67.7996,411.0404 L68.3996,424.0404 L58.7996,415.2404 L58.2006,402.2404 Z M57.2006,380.1394 L66.7996,388.9394 L67.3996,401.9394 L57.7996,393.1394 L57.2006,380.1394 Z M43.3996,422.4394 L42.7996,409.4394 L52.3996,418.2404 L52.9996,431.2404 L43.3996,422.4394 Z M27.9996,429.5404 L27.3996,416.5404 L36.9996,425.3404 L37.5996,438.3404 L27.9996,429.5404 Z M49.2996,194.2404 L48.7006,181.2404 L58.2996,190.0404 L58.8996,203.0404 L49.2996,194.2404 Z M47.7996,159.1394 L57.3996,167.9404 L57.9996,180.9404 L48.3996,172.1394 L47.7996,159.1394 Z M47.3996,150.0404 L46.7996,137.0404 L56.3996,145.8404 L56.9996,158.8404 L47.3996,150.0404 Z M45.8996,114.9404 L55.4996,123.7404 L56.0996,136.7404 L46.4996,127.9404 L45.8996,114.9404 Z M44.9996,92.7404 L54.5996,101.5404 L55.2006,114.5404 L45.5996,105.7404 L44.9996,92.7404 Z M44.0996,70.6394 L53.7006,79.4404 L54.2996,92.4404 L44.7006,83.6394 L44.0996,70.6394 Z M43.0996,48.5404 L52.7006,57.3404 L53.2996,70.3404 L43.7006,61.5404 L43.0996,48.5404 Z M32.9996,179.2404 L32.3996,166.2404 L41.9996,175.0404 L42.5996,188.0404 L32.9996,179.2404 Z M31.4996,144.1394 L41.0996,152.9404 L41.7006,165.9404 L32.0996,157.1394 L31.4996,144.1394 Z M30.5996,122.0404 L40.2006,130.8404 L40.7996,143.8404 L31.2006,135.0404 L30.5996,122.0404 Z M30.2006,112.9404 L29.5996,99.9404 L39.2006,108.7404 L39.7996,121.7404 L30.2006,112.9404 Z M28.7006,77.8404 L38.2996,86.6394 L38.8996,99.6394 L29.2996,90.8404 L28.7006,77.8404 Z M27.7996,55.7404 L37.3996,64.5404 L37.9996,77.5404 L28.3996,68.7404 L27.7996,55.7404 Z M16.7006,164.3404 L16.0996,151.3404 L25.7006,160.1394 L26.2996,173.1394 L16.7006,164.3404 Z M15.2006,129.1394 L24.7996,137.9404 L25.3996,150.9404 L15.7996,142.1394 L15.2006,129.1394 Z M14.2996,107.0404 L23.8996,115.8404 L24.4996,128.8404 L14.8996,120.0404 L14.2996,107.0404 Z M13.2996,84.9404 L22.8996,93.7404 L23.4996,106.7404 L13.8996,97.9404 L13.2996,84.9404 Z M12.3996,62.8404 L21.9996,71.6394 L22.5996,84.6394 L12.9996,75.8404 L12.3996,62.8404 Z M11.4996,40.7404 L21.0996,49.5404 L21.7006,62.5404 L11.9996,53.7404 L11.4996,40.7404 Z M265.4006,328.9394 L225.7996,292.5404 L225.2006,279.5404 L264.9996,316.0404 C264.9996,315.8404 264.9006,315.7404 264.9006,315.5404 C264.4996,314.3404 264.0996,313.1394 263.5996,311.8404 C263.4996,311.5404 263.4006,311.2404 263.2996,311.0404 C263.2006,310.8404 263.2006,310.7404 263.0996,310.5404 C261.7996,307.7404 260.7996,305.2404 259.9996,302.6394 L224.7996,270.3404 L224.2006,257.3404 L257.4006,287.8404 L257.4006,286.6394 C257.2006,285.5404 256.9996,284.4394 256.7996,283.3404 C256.4006,281.3404 255.9996,279.3404 255.4996,277.3404 L223.9006,248.3404 L223.2996,235.3404 L252.4996,262.1394 C251.9996,259.0404 251.5996,255.9404 251.2996,252.8404 L251.2996,252.3404 L222.9006,226.2404 L222.2996,213.2404 L254.4006,242.6394 C255.4996,241.2404 256.9006,239.9404 258.4006,238.8404 C258.4006,238.4404 258.4996,238.0404 258.5996,237.6394 L221.9996,204.1394 L221.4006,191.1394 L260.2006,226.7404 C260.4006,225.8404 260.4996,224.9404 260.7006,224.0404 C260.7996,223.5404 260.9006,223.1394 260.9006,222.8404 C260.9006,222.5404 260.9006,222.2404 260.9996,221.9404 C261.0996,220.9404 260.9996,219.7404 261.0996,218.7404 L220.9996,182.0404 L220.4006,169.0404 L250.7006,196.8404 C250.4996,196.1394 250.2996,195.3404 250.2006,194.5404 C250.0996,194.4404 249.9996,194.2404 249.9006,194.1394 C247.9996,191.1394 247.0996,187.9404 246.9996,184.6394 L220.0996,159.9404 L219.4996,146.9404 L247.4996,172.6394 C246.7996,171.1394 246.2996,170.0404 246.4996,170.4404 C245.5996,167.5404 245.2996,164.6394 245.2006,161.7404 L219.0996,137.8404 L218.4996,124.8404 L226.2006,131.9404 C224.0996,127.7404 222.4006,123.2404 221.0996,118.5404 L217.9996,115.7404 L217.7996,112.0404 C217.5996,111.7404 217.4996,111.4404 217.2996,111.2404 C215.4996,108.0404 213.7006,104.8404 212.0996,101.5404 C211.7006,100.6394 211.2006,99.7404 210.7996,98.9404 L211.2996,109.7404 L201.7006,100.9404 L200.9006,81.5404 C198.7006,78.1394 196.4006,74.7404 193.9996,71.4404 L194.9996,94.8404 L185.4006,86.0404 L184.4006,62.6394 C181.9996,62.2404 179.7996,61.3404 177.9006,60.0404 L178.7006,79.8404 L169.0996,71.0404 L168.2996,52.4404 C167.3996,52.6394 166.3996,52.7404 165.3996,52.7404 C164.2006,52.7404 162.9996,52.6394 161.8996,52.3404 L162.3996,64.9404 L152.7996,56.1394 L152.4996,49.1394 C151.7996,49.2404 150.9996,49.3404 150.2996,49.2404 C148.8996,49.2404 147.4996,49.2404 146.0996,49.1394 L146.0996,49.9404 L145.2006,49.1394 C140.2996,49.0404 135.2996,48.7404 130.2996,48.4404 L130.7006,57.0404 L121.0996,48.2404 L121.0996,47.8404 C117.7006,47.6394 114.3996,47.4404 110.9996,47.2404 L110.3996,47.2404 L114.7996,51.2404 L115.3996,64.2404 L105.7996,55.4404 L105.3996,46.5404 C103.0996,46.1394 100.9996,45.4404 98.8996,44.5404 L99.0996,49.2404 L89.4996,40.4404 L89.4996,40.3404 C86.3996,40.0404 83.4996,38.9404 81.0996,37.2404 C80.2006,37.8404 79.2996,38.4404 78.2996,38.9404 L83.2006,43.4404 L83.7996,56.4404 L74.2006,47.6394 L73.8996,41.0404 C69.7996,42.6394 65.4996,43.7404 61.0996,44.3404 L67.8996,50.5404 L68.4996,63.5404 L58.9996,54.4404 L58.5996,44.3404 C56.3996,44.5404 54.2996,44.6394 52.2006,44.6394 L52.3996,48.3404 L48.2006,44.5404 C44.0996,44.2404 40.0996,43.5404 36.2996,42.3404 L36.3996,42.4404 L36.9996,55.4404 L27.3996,46.6394 L27.0996,38.6394 C24.7996,37.4404 22.5996,36.1394 20.4996,34.7404 L20.7006,40.5404 L11.0996,31.7404 L10.8996,26.6394 C8.3996,24.0404 6.2006,21.2404 4.0996,18.3404 L4.3996,25.6394 L0.7006,22.2404 L0.7006,30.9404 L4.7996,34.7404 L5.3996,47.7404 L0.7996,43.4404 L0.7996,52.0404 L5.7996,56.6394 L6.3996,69.6394 L0.7996,64.5404 L0.7996,73.2404 L6.7996,78.7404 L7.3996,91.7404 L0.8996,85.7404 L0.8996,94.4404 L7.7996,100.8404 L8.3996,113.8404 L0.7006,107.0404 L0.7006,115.7404 L8.5996,122.9404 L9.2006,135.9404 L0.7996,128.2404 L0.7996,136.9404 L9.5996,145.0404 L10.2006,158.0404 L1.2006,150.0404 C1.3996,153.0404 1.5996,156.1394 1.5996,159.1394 L10.2996,167.1394 L10.8996,180.1394 L1.3996,171.4404 C1.3996,171.7404 1.2996,171.9404 1.2996,172.2404 C1.2006,173.0404 1.0996,173.7404 0.9996,174.5404 L0.9996,174.8404 C0.8996,175.6394 0.7996,176.4404 0.5996,177.1394 L0.5996,181.1394 C0.9996,181.2404 1.2996,181.3404 1.7006,181.4404 L1.7006,180.5404 L3.3996,182.1394 C4.2996,182.5404 5.2006,182.9404 6.0996,183.2404 C8.2006,184.3404 9.7996,185.8404 11.0996,187.8404 C11.5996,188.4404 12.0996,189.0404 12.4996,189.6404 C12.8996,189.6404 13.3996,189.5404 13.7996,189.5404 C14.3996,189.4404 15.0996,189.3404 15.2996,189.2404 C16.5996,188.9404 17.9996,188.5404 19.2996,188.2404 C19.3996,188.2404 19.4996,188.1394 19.5996,188.1394 L17.7006,186.3404 L17.0996,173.3404 L26.7006,182.1394 L26.8996,185.9404 C35.9996,183.9404 44.7996,190.0404 47.5996,198.6394 C47.8996,199.6394 48.0996,200.7404 48.2996,201.7404 C50.0996,202.6394 51.7996,203.6394 53.5996,204.6394 C62.2996,209.4404 64.3996,220.6394 59.9996,228.9404 L59.8996,229.0404 C63.5996,231.2404 66.3996,234.8404 67.7996,239.0404 C74.7996,241.3404 80.7006,245.9404 84.2006,252.5404 C85.0996,254.3404 85.8996,256.1394 86.3996,258.0404 L92.8996,264.0404 L93.4996,277.0404 L87.7006,271.6404 L87.7006,271.9404 C87.4996,274.3404 87.2006,276.7404 86.9996,279.2404 L86.9996,279.7404 L93.8996,286.1394 L94.4996,299.1394 L88.8996,293.9394 L88.8996,294.5404 C88.8996,297.2404 88.8996,299.9394 88.7996,302.5404 L94.8996,308.1394 L95.4996,321.1394 L87.7996,314.0404 C87.0996,318.3404 85.8996,322.5404 83.9996,326.6394 C82.4996,329.7404 80.3996,332.5404 78.3996,335.3404 L80.4996,337.3404 L81.0996,350.3404 L73.8996,343.7404 C73.7006,344.5404 73.3996,345.3404 73.2006,346.1394 C72.3996,349.2404 70.7006,351.9394 68.5996,353.9394 C67.7006,357.9394 66.4996,361.8404 64.8996,365.4394 L66.2006,366.5404 L66.7996,379.5404 L60.5996,373.8404 C56.7996,380.1394 52.2006,385.9394 47.2996,391.6394 L51.7996,395.7404 L52.3996,408.7404 L42.7996,399.9394 L42.7006,396.9394 C40.7006,399.2404 38.5996,401.4394 36.5996,403.6394 L37.0996,415.9394 L30.7006,410.0404 C29.7996,410.8404 28.7006,411.4394 27.7006,412.0404 C27.2996,412.9394 26.9996,413.7404 26.5996,414.6394 C26.4996,414.7404 26.4996,414.9394 26.3996,415.0404 C26.2996,415.2404 26.0996,415.4394 25.9996,415.6394 C25.4996,416.2404 25.0996,416.8404 24.7006,417.3404 C24.2006,418.2404 23.4996,419.0404 22.8996,419.8404 C22.8996,421.8404 22.5996,423.7404 21.8996,425.4394 C22.4996,426.9394 22.8996,428.4394 23.2006,430.1394 C25.2006,432.0404 26.7006,434.4394 27.5996,437.1394 C32.2996,440.4394 36.2996,444.5404 40.4996,448.3404 C41.4996,448.1394 42.5996,448.0404 43.5996,448.0404 C46.0996,448.0404 48.3996,448.5404 50.4996,449.4404 L44.7996,444.2404 L44.2006,431.2404 L53.7996,440.0404 L54.2996,451.7404 C58.3996,455.0404 61.0996,460.1394 61.2996,465.7404 C61.5996,472.1394 57.7006,477.9404 52.2996,481.0404 L55.7006,484.1394 L56.2996,497.1394 L46.7006,488.3404 L46.4996,483.2404 C45.8996,483.3404 45.2996,483.4404 44.7006,483.4404 C44.7996,483.8404 44.7996,484.3404 44.8996,484.7404 C44.9996,485.4404 44.9996,486.1394 45.0996,486.8404 C45.2006,487.9404 45.2996,489.0404 45.2996,490.1394 C45.3996,491.6394 45.3996,493.1394 45.3996,494.5404 C45.7996,494.7404 46.0996,494.9394 46.4996,495.1394 C46.5996,495.2404 46.7006,495.2404 46.7996,495.3404 C47.8996,496.0404 48.9996,496.9404 49.7996,498.0404 C51.2996,499.9404 52.8996,501.8404 54.7006,503.6394 C56.3996,502.8404 58.2996,502.3404 60.2006,502.1394 C60.3996,501.8404 60.4996,501.5404 60.7006,501.2404 C61.2996,500.2404 61.9996,499.3404 62.7996,498.5404 L62.3996,490.2404 L67.4996,494.9404 C68.8996,494.2404 70.2996,493.6394 71.7996,493.2404 C71.9996,493.1394 72.2996,493.1394 72.4996,493.0404 C72.5996,493.0404 72.7006,493.0404 72.7996,492.9404 C72.9996,492.9404 73.2006,492.8404 73.2996,492.8404 C73.7996,492.7404 74.2006,492.7404 74.7006,492.6394 L75.7996,492.6394 C76.5996,492.6394 77.3996,492.7404 78.2006,492.8404 L77.7996,482.9404 L87.3996,491.7404 L86.9996,495.0404 C88.0996,494.8404 89.2996,494.6394 90.4996,494.6394 C90.9996,494.6394 91.4996,494.6394 91.9996,494.7404 C92.4996,494.7404 92.9996,494.8404 93.3996,494.9394 C97.4996,495.6394 100.9996,497.7404 103.5996,500.7404 C103.7006,500.8404 103.7996,500.9394 103.7996,501.0404 C104.0996,501.4394 104.3996,501.7404 104.7006,502.1394 C104.7006,502.2404 104.7996,502.2404 104.7996,502.3404 C105.0996,502.7404 105.3996,503.2404 105.5996,503.6394 C105.5996,503.6394 105.5996,503.7404 105.7006,503.7404 C105.9996,504.2404 106.2006,504.7404 106.3996,505.2404 C106.8996,506.4394 107.2996,507.6394 107.5996,508.8404 C110.7006,510.7404 113.0996,513.5404 114.5996,516.8404 C114.7996,516.9394 114.8996,517.0404 115.0996,517.1394 C116.3996,516.8404 117.7996,516.6394 119.0996,516.6394 C120.8996,516.6394 122.7006,516.9394 124.2996,517.4394 C124.7006,517.3404 125.0996,517.2404 125.4996,517.1394 L124.9996,506.3404 L134.5996,515.1394 L134.7006,517.5404 C137.2006,518.3404 139.3996,519.7404 141.2996,521.5404 L141.2996,521.3404 L144.8996,524.6394 C146.9996,524.8404 148.8996,525.4394 150.7006,526.3404 C152.7996,525.5404 154.8996,525.0404 157.2006,525.0404 L156.7006,514.2404 L166.2996,523.0404 L166.7996,523.0404 C168.9996,521.9404 171.2996,521.2404 173.7006,521.1394 L172.5996,520.1394 L171.9996,507.1394 L181.5996,515.9394 L181.9006,522.4394 C183.9006,521.6394 185.9996,521.1394 188.2006,521.1394 C189.9006,519.9394 191.7996,518.9394 193.7996,518.3404 L187.9006,512.9394 L187.2996,499.9394 L196.9006,508.7404 L197.2996,517.6394 C199.2996,517.4394 201.2996,517.6394 203.2996,518.3404 C203.4006,518.3404 203.5996,518.4394 203.7996,518.4394 L203.5996,514.8404 L207.5996,518.5404 C208.2006,518.4404 208.7006,518.3404 208.9006,518.3404 C210.0996,518.0404 211.2006,517.6394 212.2996,517.2404 L212.4006,517.1394 C213.4006,516.5404 214.4996,516.0404 215.4996,515.4404 C215.7006,515.3404 215.9006,515.1394 216.0996,515.0404 C216.7996,514.4404 217.9006,513.4404 217.9996,513.3404 L218.0996,513.3404 C218.0996,513.2404 218.2006,513.1394 218.2006,513.1394 C218.2006,513.0404 218.2996,512.9394 218.2996,512.8404 C218.4996,512.2404 218.7006,511.6394 218.9006,511.1394 L218.7996,507.7404 L219.7006,508.5404 C220.4006,506.2404 220.9996,503.9394 221.7006,501.6394 L218.4006,498.6394 L217.7996,485.6394 L224.7006,491.9394 C227.2996,484.6394 230.7996,477.8404 235.4996,471.8404 L232.7996,469.3404 L232.2006,456.3404 L241.7006,465.0404 C242.5996,464.2404 243.4996,463.3404 244.4996,462.6394 C245.2006,462.0404 245.9996,461.4394 246.7006,460.9394 L231.9006,447.3404 L231.2996,434.3404 L251.9006,453.3404 C251.9006,453.2404 251.9996,453.0404 251.9996,452.9394 C252.2996,451.1394 252.2996,451.3404 251.9996,453.4394 L252.0996,453.5404 C252.4996,452.3404 252.0996,449.6394 252.0996,448.7404 C252.0996,447.4394 251.9996,446.0404 251.9006,444.7404 L230.7996,425.3404 L230.2006,412.3404 L247.2996,428.0404 L247.2006,427.9394 C244.7006,423.1394 242.4996,418.3404 240.9006,413.5404 L230.4006,403.0404 L229.7996,390.0404 L237.9996,397.5404 C237.7006,394.5404 237.4996,391.4394 237.4996,388.3404 L229.4006,380.9394 L228.7996,367.9394 L238.4996,376.8404 C238.9996,374.4394 239.9006,372.3404 240.9996,370.4394 L228.4006,358.8404 L227.7996,345.8404 L244.9006,361.5404 C245.5996,359.4394 246.7006,357.4394 248.0996,355.7404 L227.4006,336.7404 L226.7996,323.7404 L255.9996,350.5404 C256.2006,350.5404 256.2996,350.4394 256.4996,350.4394 C256.9006,348.2404 257.5996,346.1394 258.7006,344.2404 L226.4996,314.6394 L225.9006,301.6394 L264.5996,337.2404 C264.4006,334.4394 264.5996,331.6394 265.4006,328.9394 L265.4006,328.9394 Z" id="Fill-9" fill="#020203"></path>
            <g id="Group-13" transform="translate(332.000000, 547.000000)">
                <mask id="mask-2" fill="white">
                    <use xlink:href="#path-1"></use>
                </mask>
                <g id="Clip-12"></g>
                <path d="M2.2002,0.5997 C1.5002,0.5997 0.7002,0.4997 0.0002,0.4997 L0.5002,0.9997 L3.0002,0.9997 C2.7002,0.8997 2.5002,0.7007 2.2002,0.5997" id="Fill-11" fill="#020203" mask="url(#mask-2)"></path>
            </g>
        </g>
    </g>
</svg>